<svg width="39" height="38" fill="none" xmlns="http://www.w3.org/2000/svg"><path d="M13.921 26.164c-1.793 0-3.247 1.417-3.247 3.164s1.454 3.163 3.247 3.163 3.247-1.416 3.247-3.163c0-1.747-1.454-3.164-3.247-3.164zm0 4.921c-.996 0-1.804-.786-1.804-1.757 0-.97.808-1.758 1.804-1.758s1.804.787 1.804 1.758c0 .97-.808 1.757-1.804 1.757zm13.709-4.921c-1.794 0-3.247 1.417-3.247 3.164s1.454 3.163 3.247 3.163 3.246-1.416 3.246-3.163c0-1.747-1.453-3.164-3.246-3.164zm0 4.921c-.997 0-1.804-.786-1.804-1.757 0-.97.807-1.758 1.804-1.758.996 0 1.803.787 1.803 1.758 0 .97-.807 1.757-1.803 1.757zM34.953 7.71a.91.91 0 00-.577-.281L10.89 7.113l-.65-1.934C9.784 3.887 8.541 3.014 7.14 3H4.722A.712.712 0 004 3.703c0 .388.323.703.722.703h2.417a1.872 1.872 0 011.731 1.23L13.452 19.1l-.36.808a3.3 3.3 0 00.324 3.059c.6.893 1.61 1.444 2.706 1.476h14.033a.712.712 0 00.722-.703.713.713 0 00-.722-.703H16.122a1.85 1.85 0 01-1.516-.844 1.89 1.89 0 01-.18-1.687l.289-.633 15.188-1.546c1.668-.18 3.04-1.362 3.427-2.953l1.731-7.065a.586.586 0 00-.108-.598zm-3.03 7.347c-.234 1.024-1.127 1.78-2.2 1.863l-15.009 1.51-3.354-9.91 22.114.316-1.551 6.222z" fill="#fff"/></svg>