<svg width="49" height="49" fill="none" xmlns="http://www.w3.org/2000/svg"><path d="M37.516 17.61a3.066 3.066 0 003.062-3.063 3.066 3.066 0 00-3.062-3.063 3.066 3.066 0 00-3.063 3.063 3.066 3.066 0 003.063 3.062zm0-4.594a1.531 1.531 0 010 3.062 1.533 1.533 0 01-1.532-1.531c0-.845.687-1.531 1.532-1.531z" fill="#000"/><path d="M45.938 29.86c-5.19 0-8.585-1.82-9.768-2.572a6.787 6.787 0 00-.042-.511c7.5-.329 9.813-4.686 10.388-6.188a2.295 2.295 0 001.718-2.214 2.299 2.299 0 00-1.802-2.24c-.14-.265-.355-.66-.635-1.146.497-.695 2.922-4.234 2.298-6.152-.18-.557-.578-.951-1.15-1.142-.903-.3-2.073-1.108-3.206-1.89-1.536-1.06-2.864-1.977-3.926-1.977-1.542 0-3.46 1.662-4.139 2.299a11.863 11.863 0 00-2.22-.063c-.408-1.048-1.455-3.002-3.595-3.002-2.81 0-7.596 2.689-8.406 6.741-.362 1.805.049 3.234.697 4.28-.122 1.027-.242 3.623 1.114 6.072a1.98 1.98 0 00-.778.63 2.16 2.16 0 00-.376 1.009c-1.71-.686-4.97-1.95-7.355-2.624-1.765-.499-1.873-2.745-1.811-3.861.024 0 .046.004.072.004 4.494 0 6.125-3.663 6.125-6.126 0-1.976-.607-8.421-8.422-8.421C4.05.766 2.03 5.268 1.57 6.649c-.5 1.503-.878 7.152 2.317 11.29l-3.121-.447v.883c0 1.836.977 5.254 4.466 6.505-1.24 1.265-2.935 3.774-2.935 8.042 0 6.949 7.476 9.357 9.767 9.93.733.183 2.046 1.18 3.317 2.144 2.097 1.592 4.265 3.238 6.056 3.238.616 0 1.21-.307 1.642-.765h.655a2.292 2.292 0 002.19-1.64 2.291 2.291 0 001.639-2.188c0-1.202-.96-2.188-2.234-2.295-1.446-.12-4.263-.691-5.646-2.075-.152-.151-.275-.363-.384-.603 1.919.633 5.87 1.657 10.31 1.179 1.422 1.24 8.109 6.856 12.5 6.856 1.252 0 3.063-1.09 3.063-3.062a2.29 2.29 0 00-.07-.54 2.285 2.285 0 00.836-1.757c0-1.19-.907-2.132-2.204-2.292-1.102-.135-2.398-.562-3.85-2.04.9.227 1.8.334 2.648.334 1.393 0 2.646-.284 3.521-.78.913-.517 1.416-1.267 1.416-2.113 0-.187-.029-.365-.07-.539a2.285 2.285 0 00.835-1.758 2.3 2.3 0 00-2.297-2.297zm-11.353-3.08c.105.741.051 1.421-.132 1.548-4.065 0-7.497-1.819-10.79-5.724-.056-.248-.1-.694.064-.925.092-.127.268-.19.454-.22 1.052 1.12 5.085 5.026 10.404 5.32zm11.352-7.64a.767.767 0 010-1.53.767.767 0 010 1.53zm.703-9.83c.23.707-.662 2.63-1.715 4.238a37.51 37.51 0 00-1.228-1.82c.895-.996 1.51-2.181 1.858-2.968.31.157.614.29.906.388.13.043.156.095.179.162zm-6.828-3.95c.586 0 1.957.946 3.058 1.706.45.31.904.623 1.355.915-.262.616-.757 1.63-1.475 2.5a22.488 22.488 0 00-1.63-1.834c-1.096-1.096-2.357-1.74-3.562-2.116.794-.622 1.693-1.172 2.255-1.172zm-9.953-.766c1.666 0 2.314 2.459 2.32 2.483l.172.683.696-.113c.04-.008 4.253-.655 6.99 2.083 2.185 2.185 3.993 5.221 4.784 6.65a2.288 2.288 0 00-1.18 1.995c0 .9.525 1.673 1.28 2.05-.702 1.496-3.012 4.84-9.702 4.84-5.57 0-9.897-4.817-10.118-5.07-1.13-1.515-1.432-3.26-1.478-4.523a4.2 4.2 0 00.481.298c.347.239 2.21 1.44 4.04.992 1.03-.25 1.839-.947 2.401-2.073 1.593-3.187 1.611-6.335 1.611-6.467h-1.531c0 .024-.015 2.142-.917 4.55-3.684-.66-5.294-3.712-5.807-4.98 1.53-2.145 4.377-3.398 5.958-3.398zm-6.906 5.51c.025-.124.064-.242.098-.361.925 1.668 2.75 3.934 6.007 4.657-.338.585-.753.946-1.272 1.073-1.073.264-2.41-.474-2.835-.78l-.104-.063c-.104-.053-2.53-1.343-1.894-4.527zM3.023 7.132c.485-1.454 2.205-4.836 7.696-4.836 5.995 0 6.89 4.317 6.89 6.89 0 1.59-.96 4.594-4.593 4.594-2.678 0-3.474-1.356-3.868-2.539-.302-.907-.175-1.842.348-2.568a2.423 2.423 0 011.988-1.018c1.703 0 2.313 1.705 2.336 1.773l1.453-.484c-.039-.115-.973-2.82-3.789-2.82a3.94 3.94 0 00-3.23 1.653c-.803 1.113-1.011 2.59-.559 3.95.178.533.407 1.007.685 1.423l-.434 2.168-3.056-2.957-.675 3.289c-1.873-3.47-1.522-7.53-1.192-8.518zm40.524 33.44c.428.052.86.31.86.77a.75.75 0 01-.17.46 2.272 2.272 0 00-1.362-.46v1.532c.422 0 .766.344.766.766 0 1.075-1.096 1.53-1.532 1.53-4.247 0-11.663-6.626-11.737-6.693l-.26-.234-.348.043c-5.288.663-10.044-1.065-10.928-1.411a37.914 37.914 0 01-.228-2.095c-.289-3.223-.617-6.877-3.82-7.944l-.484 1.452c2.251.75 2.52 3.739 2.779 6.629.198 2.215.386 4.306 1.516 5.437 1.586 1.587 4.548 2.348 6.603 2.519.413.032.83.307.83.767a.759.759 0 01-.232.545 2.294 2.294 0 00-2.066-1.311v1.531a.767.767 0 010 1.531c0-1.18-1.116-2.296-2.297-2.296v1.53c.344 0 .766.423.766.767 0 .343-.422.765-.765.765-1.277 0-3.414-1.623-5.132-2.926-1.52-1.154-2.833-2.15-3.87-2.41-2.589-.647-8.608-2.766-8.608-8.445 0-5.663 3.307-7.677 3.444-7.758l1.93-1.107-2.203-.315c-3.407-.486-4.345-3.07-4.604-4.47l4.387.626.217-1.515-1.731-.248.561-2.735 3.07 2.97.783-3.922c.5.327 1.086.551 1.737.693-.095 1.46.032 4.686 2.92 5.502 2.899.82 7.298 2.607 8.171 2.965 3.417 4.041 7.162 6.084 11.426 6.237 2.846 6.939 5.821 10.26 9.611 10.728zm1.752-5.338c-1.531.866-4.78.815-7.254-.603-.825-1.29-1.688-2.963-2.584-5.114a1.58 1.58 0 00.253-.257 1.8 1.8 0 00.195-.339c1.666.956 5.081 2.469 10.029 2.469.421 0 .765.343.765.765a.75.75 0 01-.168.459 2.272 2.272 0 00-1.363-.459v1.532c.422 0 .766.343.766.765 0 .347-.348.616-.639.782z" fill="#000"/></svg>