<svg width="42" height="42" fill="none" xmlns="http://www.w3.org/2000/svg"><g clip-path="url(#clip0)" fill="#000"><path d="M41.038 2.439a3.278 3.278 0 00-4.64 0L28.99 9.86a5.74 5.74 0 00-7.5.54l-6.436 6.436a5.75 5.75 0 00-7.125 4.763 4.517 4.517 0 00-4.958 4.898H.82a.82.82 0 00-.772 1.097l4.43 12.386a.82.82 0 00.772.544h5.906a.82.82 0 00.82-.82c0-.904.736-1.64 1.64-1.64h3.692a.82.82 0 000-1.641h-3.691a3.287 3.287 0 00-3.177 2.46H5.828L1.985 28.138h38.03L36.17 38.883h-4.61a3.287 3.287 0 00-3.178-2.461h-3.691a.82.82 0 100 1.64h3.691c.905 0 1.64.737 1.64 1.641 0 .453.368.82.821.82h5.906a.82.82 0 00.773-.544l4.43-12.386a.82.82 0 00-.773-1.097h-2.192a5.75 5.75 0 00-5.513-4.917 5.744 5.744 0 00.157-7.08l7.407-7.42a3.278 3.278 0 000-4.64zm-3.715 24.057h-32.7a2.874 2.874 0 013.801-3.117.82.82 0 001.095-.801 4.105 4.105 0 014.098-4.285 4.102 4.102 0 014.101 4.102.82.82 0 001.641 0 5.72 5.72 0 00-.218-1.57 2.93 2.93 0 01.86-.062 2.85 2.85 0 011.958 1.005.82.82 0 001.182.072 4.09 4.09 0 012.78-1.086 4.11 4.11 0 013.872 2.743.82.82 0 001.23.41 4.096 4.096 0 012.281-.692 4.109 4.109 0 014.019 3.281zM39.877 5.92l-7.945 7.96a.82.82 0 000 1.16 4.099 4.099 0 010 5.8l-1.079 1.08a5.794 5.794 0 00-2.417-2.223l1.176-1.176a.82.82 0 00-1.16-1.16l-1.802 1.802a5.726 5.726 0 00-4.01.981 4.464 4.464 0 00-.99-.621l4.482-4.483a.82.82 0 00-1.16-1.16l-5.235 5.236a4.535 4.535 0 00-1.28.193 5.808 5.808 0 00-1.783-1.771l5.978-5.978a4.098 4.098 0 015.8 0 .82.82 0 001.16 0l7.946-7.96a1.639 1.639 0 012.32 0 1.639 1.639 0 010 2.32z"/><path d="M21 38.063a.82.82 0 100-1.641.82.82 0 000 1.64z"/></g><defs><clipPath id="clip0"><path fill="#fff" d="M0 0h42v42H0z"/></clipPath></defs></svg>