<svg width="49" height="49" fill="none" xmlns="http://www.w3.org/2000/svg"><path d="M38.551 10.145c0-3.33-2.179-8.614-8.027-8.614-2.402 0-4.423 1.133-6.024 3.372-1.601-2.24-3.622-3.372-6.024-3.372-5.848 0-8.027 5.283-8.027 8.614 0 5.741 4.48 9.332 10.603 14.567.899.77 1.83 1.565 2.82 2.425a.955.955 0 001.255 0 496.38 496.38 0 012.822-2.425c6.408-5.48 10.602-8.947 10.602-14.567zM24.5 25.148a635.16 635.16 0 00-2.204-1.89c-6.405-5.477-9.933-8.494-9.933-13.113 0-3.134 2.05-6.7 6.113-6.7 2.12 0 3.816 1.218 5.184 3.722a.957.957 0 001.68 0c1.368-2.504 3.064-3.722 5.184-3.722 4.006 0 6.113 3.513 6.113 6.7 0 4.62-3.528 7.636-9.933 13.112-.71.608-1.44 1.231-2.204 1.891zM6.877 39.058l4.607 2.303v5.15c0 .53.429.958.957.958h10.145a.957.957 0 00.957-.957V34.018c0-2.933-2.2-5.364-5.11-5.656l-.077-.008c-1.684-.169-4.666-1.32-5.844-2.498l-2.15-2.149a3.803 3.803 0 00-2.706-1.121V14.93a3.832 3.832 0 00-3.828-3.828A3.832 3.832 0 000 14.93v13c0 4.71 2.66 9.019 6.877 11.128zM1.914 14.93c0-1.056.859-1.914 1.914-1.914 1.056 0 1.914.858 1.914 1.914v8.169a3.836 3.836 0 00-1.914 3.315c0 1.022.398 1.983 1.122 2.706l4.9 4.902a.957.957 0 101.354-1.353l-4.9-4.902a1.917 1.917 0 01.715-3.158 1.911 1.911 0 011.99.452l2.15 2.148c2.219 2.22 7.067 3.054 7.076 3.057a3.758 3.758 0 013.394 3.752v11.537h-8.23V40.77a.957.957 0 00-.53-.856l-5.136-2.568a10.47 10.47 0 01-5.819-9.416v-13zm42.014 22.777a.957.957 0 100-1.914.957.957 0 000 1.914z" fill="#000"/><path d="M45.172 11.102a3.832 3.832 0 00-3.828 3.828v7.656a3.802 3.802 0 00-2.707 1.121l-2.15 2.149c-1.177 1.177-4.159 2.33-5.85 2.499l-.063.006a5.667 5.667 0 00-5.117 5.657v12.494c0 .528.429.957.957.957H36.56a.957.957 0 00.957-.957v-5.15l3.132-1.567a.957.957 0 00-.856-1.712l-3.661 1.83a.957.957 0 00-.53.857v4.785h-8.23V34.018a3.76 3.76 0 013.4-3.753l.064-.006c2.076-.209 5.513-1.557 7.006-3.05l2.15-2.148a1.912 1.912 0 011.99-.452 1.917 1.917 0 01.716 3.158l-4.901 4.902a.957.957 0 001.354 1.354l4.9-4.902a3.803 3.803 0 001.122-2.707c0-1.382-.747-2.64-1.914-3.315v-8.17a1.915 1.915 0 013.828.001v13c0 1.751-.442 3.49-1.278 5.027a.957.957 0 101.682.914A12.476 12.476 0 0049 27.93v-13a3.832 3.832 0 00-3.828-3.828z" fill="#000"/></svg>