<svg width="49" height="49" fill="none" xmlns="http://www.w3.org/2000/svg"><path d="M5.168 27.805a.574.574 0 00-.574.575v9.538a.574.574 0 001.148 0V28.38a.574.574 0 00-.574-.575zm0-2.473a.574.574 0 00-.574.574v.513a.574.574 0 101.148 0v-.513a.574.574 0 00-.574-.574zM24.5 42.591a8.414 8.414 0 10.02-16.828 8.414 8.414 0 00-.02 16.828zm0-15.678a7.265 7.265 0 11.02 14.53 7.265 7.265 0 01-.02-14.53z" fill="#000"/><path d="M20.672 36.08h1.914v1.914c0 .317.353.67.67.67h2.105c.317 0 .479-.353.479-.67V36.08h1.914c.317 0 .478-.353.478-.67v-1.818c0-.317-.161-.479-.478-.479H25.84v-2.01c0-.317-.162-.478-.479-.478h-2.105c-.317 0-.67.162-.67.479v2.01h-1.914c-.317 0-.67.16-.67.478v1.818c0 .317.353.67.67.67zm.478-1.818h2.106c.317 0 .478-.353.478-.67v-1.819h.957v1.819c0 .317.353.67.67.67h1.723v.67h-1.723c-.317 0-.67.161-.67.478v2.106h-.957V35.41c0-.317-.161-.478-.478-.478H21.15v-.67z" fill="#000"/><path d="M43.38 12.92h-8.83V8.204a2.532 2.532 0 00-2.534-2.558h-1.007v-1.29c0-.317-.27-.528-.586-.528H18.578c-.317 0-.586.211-.586.528v1.29h-1.007a2.53 2.53 0 00-2.534 2.558v4.716H5.62a4.576 4.576 0 00-4.566 4.573v6.166a.557.557 0 00.574.554h.383v16.434c0 2.52 2.09 4.525 4.607 4.525h35.766c2.518 0 4.607-2.005 4.607-4.525V24.213h.383a.559.559 0 00.574-.554v-6.166a4.575 4.575 0 00-4.566-4.573zM19.14 4.977h10.72v2.488H19.14V4.977zM15.6 8.204a1.38 1.38 0 011.385-1.41h1.007v1.227a.6.6 0 00.586.592h11.844a.6.6 0 00.586-.592V6.795h1.007a1.382 1.382 0 011.385 1.41v4.715H15.6V8.204zm31.199 14.86H42.3v-1.39a2.967 2.967 0 00-5.934 0v1.39h-17.8a.574.574 0 000 1.149h17.8v1.364a2.967 2.967 0 005.934 0v-1.364h3.54v16.434c0 1.887-1.574 3.376-3.458 3.376H6.617c-1.884 0-3.459-1.49-3.459-3.377V24.214H6.7v1.364a2.967 2.967 0 105.934 0v-1.364h2.105a.574.574 0 000-1.149h-2.105v-1.39a2.967 2.967 0 00-5.934 0v1.39H2.201v-5.571a3.426 3.426 0 013.418-3.425h37.762a3.426 3.426 0 013.418 3.425v5.572zm-5.647-1.39v3.904a1.818 1.818 0 11-3.636 0v-3.904a1.818 1.818 0 113.636 0zM7.848 25.578v-3.904a1.818 1.818 0 113.636 0v3.904a1.818 1.818 0 11-3.636 0z" fill="#000"/></svg>