<svg width="48" height="48" fill="none" xmlns="http://www.w3.org/2000/svg"><g clip-path="url(#clip0)" fill="#000"><path d="M32.098 25.44a11.64 11.64 0 00-9.84-5.382 11.64 11.64 0 00-9.84 5.381l-5.205 8.12a7.348 7.348 0 00-1.152 4.5 7.35 7.35 0 001.757 4.3 7.35 7.35 0 003.975 2.404c1.56.357 3.16.204 4.626-.44l.098-.043a14.543 14.543 0 0111.58.043 7.357 7.357 0 004.624.44 7.348 7.348 0 003.976-2.404 7.346 7.346 0 001.758-4.3 7.348 7.348 0 00-1.152-4.5l-5.205-8.12zm-23.483-.011c1.549-.595 2.725-1.843 3.312-3.514.56-1.59.514-3.385-.13-5.055-.642-1.669-1.812-3.031-3.293-3.836-1.555-.846-3.265-.984-4.81-.388-3.11 1.196-4.537 5.039-3.181 8.569 1.083 2.81 3.61 4.583 6.164 4.583.652 0 1.306-.116 1.938-.36zm10.099-6.362c3.887 0 7.05-3.603 7.05-8.032 0-4.43-3.163-8.035-7.05-8.035-3.888 0-7.05 3.604-7.05 8.035 0 4.429 3.162 8.032 7.05 8.032zm12.176 1.974a5.746 5.746 0 001.816.293c2.835 0 5.598-2.063 6.653-5.235.607-1.825.567-3.755-.113-5.435-.71-1.757-2.029-3.033-3.711-3.592-1.683-.56-3.503-.326-5.124.656-1.55.938-2.737 2.46-3.344 4.286-1.28 3.851.435 7.9 3.823 9.027zm14.848-.937v-.002c-2.682-1.98-6.691-1.122-8.94 1.915-2.246 3.038-1.895 7.122.782 9.104.977.724 2.13 1.07 3.311 1.07 2.058 0 4.199-1.051 5.63-2.982 2.245-3.038 1.895-7.123-.783-9.105z"/></g><defs><clipPath id="clip0"><path fill="#fff" d="M0 0h48v48H0z"/></clipPath></defs></svg>