<svg viewBox="0 0 49 49" xmlns="http://www.w3.org/2000/svg" xmlns:xlink="http://www.w3.org/1999/xlink"><style>:root&gt;svg{display:none}:root&gt;svg:target{display:block}</style><svg fill="none" viewBox="0 0 21 15" id="arrow" xmlns="http://www.w3.org/2000/svg"><path d="M0 6.828h20m0 0L10.566 1M20 6.828L10.566 14" stroke="#000"/></svg><svg fill="none" viewBox="0 0 21 10" id="btn" xmlns="http://www.w3.org/2000/svg"><path d="M10.5 9L2 1h17l-8.5 8z" fill="#070707" stroke="#000"/></svg><svg fill="none" viewBox="0 0 15 8" id="btn-arrow" xmlns="http://www.w3.org/2000/svg"><path d="M14.448 4.354a.5.5 0 000-.708L11.266.464a.5.5 0 10-.707.708L13.387 4 10.56 6.828a.5.5 0 10.707.708l3.182-3.182zM.094 4.5h14v-1h-14v1z" fill="#FDFDFD"/></svg><svg fill="none" viewBox="0 0 39 38" id="cart" xmlns="http://www.w3.org/2000/svg"><path d="M13.921 26.164c-1.793 0-3.247 1.417-3.247 3.164s1.454 3.163 3.247 3.163 3.247-1.416 3.247-3.163c0-1.747-1.454-3.164-3.247-3.164zm0 4.921c-.996 0-1.804-.786-1.804-1.757 0-.97.808-1.758 1.804-1.758s1.804.787 1.804 1.758c0 .97-.808 1.757-1.804 1.757zm13.709-4.921c-1.794 0-3.247 1.417-3.247 3.164s1.454 3.163 3.247 3.163 3.246-1.416 3.246-3.163c0-1.747-1.453-3.164-3.246-3.164zm0 4.921c-.997 0-1.804-.786-1.804-1.757 0-.97.807-1.758 1.804-1.758.996 0 1.803.787 1.803 1.758 0 .97-.807 1.757-1.803 1.757zM34.953 7.71a.91.91 0 00-.577-.281L10.89 7.113l-.65-1.934C9.784 3.887 8.541 3.014 7.14 3H4.722A.712.712 0 004 3.703c0 .388.323.703.722.703h2.417a1.872 1.872 0 011.731 1.23L13.452 19.1l-.36.808a3.3 3.3 0 00.324 3.059c.6.893 1.61 1.444 2.706 1.476h14.033a.712.712 0 00.722-.703.713.713 0 00-.722-.703H16.122a1.85 1.85 0 01-1.516-.844 1.89 1.89 0 01-.18-1.687l.289-.633 15.188-1.546c1.668-.18 3.04-1.362 3.427-2.953l1.731-7.065a.586.586 0 00-.108-.598zm-3.03 7.347c-.234 1.024-1.127 1.78-2.2 1.863l-15.009 1.51-3.354-9.91 22.114.316-1.551 6.222z" fill="#fff"/></svg><svg viewBox="0 0 492.004 492.004" id="checkbox" xmlns="http://www.w3.org/2000/svg"><path fill="#fff" d="M382.678 226.804L163.73 7.86C158.666 2.792 151.906 0 144.698 0s-13.968 2.792-19.032 7.86l-16.124 16.12c-10.492 10.504-10.492 27.576 0 38.064L293.398 245.9l-184.06 184.06c-5.064 5.068-7.86 11.824-7.86 19.028 0 7.212 2.796 13.968 7.86 19.04l16.124 16.116c5.068 5.068 11.824 7.86 19.032 7.86s13.968-2.792 19.032-7.86L382.678 265c5.076-5.084 7.864-11.872 7.848-19.088.016-7.244-2.772-14.028-7.848-19.108z"/></svg><svg fill="none" viewBox="0 0 49 49" id="dog" xmlns="http://www.w3.org/2000/svg"><path d="M37.516 17.61a3.066 3.066 0 003.062-3.063 3.066 3.066 0 00-3.062-3.063 3.066 3.066 0 00-3.063 3.063 3.066 3.066 0 003.063 3.062zm0-4.594a1.531 1.531 0 010 3.062 1.533 1.533 0 01-1.532-1.531c0-.845.687-1.531 1.532-1.531z" fill="#000"/><path d="M45.938 29.86c-5.19 0-8.585-1.82-9.768-2.572a6.787 6.787 0 00-.042-.511c7.5-.329 9.813-4.686 10.388-6.188a2.295 2.295 0 001.718-2.214 2.299 2.299 0 00-1.802-2.24c-.14-.265-.355-.66-.635-1.146.497-.695 2.922-4.234 2.298-6.152-.18-.557-.578-.951-1.15-1.142-.903-.3-2.073-1.108-3.206-1.89-1.536-1.06-2.864-1.977-3.926-1.977-1.542 0-3.46 1.662-4.139 2.299a11.863 11.863 0 00-2.22-.063c-.408-1.048-1.455-3.002-3.595-3.002-2.81 0-7.596 2.689-8.406 6.741-.362 1.805.049 3.234.697 4.28-.122 1.027-.242 3.623 1.114 6.072a1.98 1.98 0 00-.778.63 2.16 2.16 0 00-.376 1.009c-1.71-.686-4.97-1.95-7.355-2.624-1.765-.499-1.873-2.745-1.811-3.861.024 0 .046.004.072.004 4.494 0 6.125-3.663 6.125-6.126 0-1.976-.607-8.421-8.422-8.421C4.05.766 2.03 5.268 1.57 6.649c-.5 1.503-.878 7.152 2.317 11.29l-3.121-.447v.883c0 1.836.977 5.254 4.466 6.505-1.24 1.265-2.935 3.774-2.935 8.042 0 6.949 7.476 9.357 9.767 9.93.733.183 2.046 1.18 3.317 2.144 2.097 1.592 4.265 3.238 6.056 3.238.616 0 1.21-.307 1.642-.765h.655a2.292 2.292 0 002.19-1.64 2.291 2.291 0 001.639-2.188c0-1.202-.96-2.188-2.234-2.295-1.446-.12-4.263-.691-5.646-2.075-.152-.151-.275-.363-.384-.603 1.919.633 5.87 1.657 10.31 1.179 1.422 1.24 8.109 6.856 12.5 6.856 1.252 0 3.063-1.09 3.063-3.062a2.29 2.29 0 00-.07-.54 2.285 2.285 0 00.836-1.757c0-1.19-.907-2.132-2.204-2.292-1.102-.135-2.398-.562-3.85-2.04.9.227 1.8.334 2.648.334 1.393 0 2.646-.284 3.521-.78.913-.517 1.416-1.267 1.416-2.113 0-.187-.029-.365-.07-.539a2.285 2.285 0 00.835-1.758 2.3 2.3 0 00-2.297-2.297zm-11.353-3.08c.105.741.051 1.421-.132 1.548-4.065 0-7.497-1.819-10.79-5.724-.056-.248-.1-.694.064-.925.092-.127.268-.19.454-.22 1.052 1.12 5.085 5.026 10.404 5.32zm11.352-7.64a.767.767 0 010-1.53.767.767 0 010 1.53zm.703-9.83c.23.707-.662 2.63-1.715 4.238a37.51 37.51 0 00-1.228-1.82c.895-.996 1.51-2.181 1.858-2.968.31.157.614.29.906.388.13.043.156.095.179.162zm-6.828-3.95c.586 0 1.957.946 3.058 1.706.45.31.904.623 1.355.915-.262.616-.757 1.63-1.475 2.5a22.488 22.488 0 00-1.63-1.834c-1.096-1.096-2.357-1.74-3.562-2.116.794-.622 1.693-1.172 2.255-1.172zm-9.953-.766c1.666 0 2.314 2.459 2.32 2.483l.172.683.696-.113c.04-.008 4.253-.655 6.99 2.083 2.185 2.185 3.993 5.221 4.784 6.65a2.288 2.288 0 00-1.18 1.995c0 .9.525 1.673 1.28 2.05-.702 1.496-3.012 4.84-9.702 4.84-5.57 0-9.897-4.817-10.118-5.07-1.13-1.515-1.432-3.26-1.478-4.523a4.2 4.2 0 00.481.298c.347.239 2.21 1.44 4.04.992 1.03-.25 1.839-.947 2.401-2.073 1.593-3.187 1.611-6.335 1.611-6.467h-1.531c0 .024-.015 2.142-.917 4.55-3.684-.66-5.294-3.712-5.807-4.98 1.53-2.145 4.377-3.398 5.958-3.398zm-6.906 5.51c.025-.124.064-.242.098-.361.925 1.668 2.75 3.934 6.007 4.657-.338.585-.753.946-1.272 1.073-1.073.264-2.41-.474-2.835-.78l-.104-.063c-.104-.053-2.53-1.343-1.894-4.527zM3.023 7.132c.485-1.454 2.205-4.836 7.696-4.836 5.995 0 6.89 4.317 6.89 6.89 0 1.59-.96 4.594-4.593 4.594-2.678 0-3.474-1.356-3.868-2.539-.302-.907-.175-1.842.348-2.568a2.423 2.423 0 011.988-1.018c1.703 0 2.313 1.705 2.336 1.773l1.453-.484c-.039-.115-.973-2.82-3.789-2.82a3.94 3.94 0 00-3.23 1.653c-.803 1.113-1.011 2.59-.559 3.95.178.533.407 1.007.685 1.423l-.434 2.168-3.056-2.957-.675 3.289c-1.873-3.47-1.522-7.53-1.192-8.518zm40.524 33.44c.428.052.86.31.86.77a.75.75 0 01-.17.46 2.272 2.272 0 00-1.362-.46v1.532c.422 0 .766.344.766.766 0 1.075-1.096 1.53-1.532 1.53-4.247 0-11.663-6.626-11.737-6.693l-.26-.234-.348.043c-5.288.663-10.044-1.065-10.928-1.411a37.914 37.914 0 01-.228-2.095c-.289-3.223-.617-6.877-3.82-7.944l-.484 1.452c2.251.75 2.52 3.739 2.779 6.629.198 2.215.386 4.306 1.516 5.437 1.586 1.587 4.548 2.348 6.603 2.519.413.032.83.307.83.767a.759.759 0 01-.232.545 2.294 2.294 0 00-2.066-1.311v1.531a.767.767 0 010 1.531c0-1.18-1.116-2.296-2.297-2.296v1.53c.344 0 .766.423.766.767 0 .343-.422.765-.765.765-1.277 0-3.414-1.623-5.132-2.926-1.52-1.154-2.833-2.15-3.87-2.41-2.589-.647-8.608-2.766-8.608-8.445 0-5.663 3.307-7.677 3.444-7.758l1.93-1.107-2.203-.315c-3.407-.486-4.345-3.07-4.604-4.47l4.387.626.217-1.515-1.731-.248.561-2.735 3.07 2.97.783-3.922c.5.327 1.086.551 1.737.693-.095 1.46.032 4.686 2.92 5.502 2.899.82 7.298 2.607 8.171 2.965 3.417 4.041 7.162 6.084 11.426 6.237 2.846 6.939 5.821 10.26 9.611 10.728zm1.752-5.338c-1.531.866-4.78.815-7.254-.603-.825-1.29-1.688-2.963-2.584-5.114a1.58 1.58 0 00.253-.257 1.8 1.8 0 00.195-.339c1.666.956 5.081 2.469 10.029 2.469.421 0 .765.343.765.765a.75.75 0 01-.168.459 2.272 2.272 0 00-1.363-.459v1.532c.422 0 .766.343.766.765 0 .347-.348.616-.639.782z" fill="#000"/></svg><svg fill="none" viewBox="0 0 49 49" id="love" xmlns="http://www.w3.org/2000/svg"><path d="M38.551 10.145c0-3.33-2.179-8.614-8.027-8.614-2.402 0-4.423 1.133-6.024 3.372-1.601-2.24-3.622-3.372-6.024-3.372-5.848 0-8.027 5.283-8.027 8.614 0 5.741 4.48 9.332 10.603 14.567.899.77 1.83 1.565 2.82 2.425a.955.955 0 001.255 0 496.38 496.38 0 012.822-2.425c6.408-5.48 10.602-8.947 10.602-14.567zM24.5 25.148a635.16 635.16 0 00-2.204-1.89c-6.405-5.477-9.933-8.494-9.933-13.113 0-3.134 2.05-6.7 6.113-6.7 2.12 0 3.816 1.218 5.184 3.722a.957.957 0 001.68 0c1.368-2.504 3.064-3.722 5.184-3.722 4.006 0 6.113 3.513 6.113 6.7 0 4.62-3.528 7.636-9.933 13.112-.71.608-1.44 1.231-2.204 1.891zM6.877 39.058l4.607 2.303v5.15c0 .53.429.958.957.958h10.145a.957.957 0 00.957-.957V34.018c0-2.933-2.2-5.364-5.11-5.656l-.077-.008c-1.684-.169-4.666-1.32-5.844-2.498l-2.15-2.149a3.803 3.803 0 00-2.706-1.121V14.93a3.832 3.832 0 00-3.828-3.828A3.832 3.832 0 000 14.93v13c0 4.71 2.66 9.019 6.877 11.128zM1.914 14.93c0-1.056.859-1.914 1.914-1.914 1.056 0 1.914.858 1.914 1.914v8.169a3.836 3.836 0 00-1.914 3.315c0 1.022.398 1.983 1.122 2.706l4.9 4.902a.957.957 0 101.354-1.353l-4.9-4.902a1.917 1.917 0 01.715-3.158 1.911 1.911 0 011.99.452l2.15 2.148c2.219 2.22 7.067 3.054 7.076 3.057a3.758 3.758 0 013.394 3.752v11.537h-8.23V40.77a.957.957 0 00-.53-.856l-5.136-2.568a10.47 10.47 0 01-5.819-9.416v-13zm42.014 22.777a.957.957 0 100-1.914.957.957 0 000 1.914z" fill="#000"/><path d="M45.172 11.102a3.832 3.832 0 00-3.828 3.828v7.656a3.802 3.802 0 00-2.707 1.121l-2.15 2.149c-1.177 1.177-4.159 2.33-5.85 2.499l-.063.006a5.667 5.667 0 00-5.117 5.657v12.494c0 .528.429.957.957.957H36.56a.957.957 0 00.957-.957v-5.15l3.132-1.567a.957.957 0 00-.856-1.712l-3.661 1.83a.957.957 0 00-.53.857v4.785h-8.23V34.018a3.76 3.76 0 013.4-3.753l.064-.006c2.076-.209 5.513-1.557 7.006-3.05l2.15-2.148a1.912 1.912 0 011.99-.452 1.917 1.917 0 01.716 3.158l-4.901 4.902a.957.957 0 001.354 1.354l4.9-4.902a3.803 3.803 0 001.122-2.707c0-1.382-.747-2.64-1.914-3.315v-8.17a1.915 1.915 0 013.828.001v13c0 1.751-.442 3.49-1.278 5.027a.957.957 0 101.682.914A12.476 12.476 0 0049 27.93v-13a3.832 3.832 0 00-3.828-3.828z" fill="#000"/></svg><svg fill="none" viewBox="0 0 49 49" id="med" xmlns="http://www.w3.org/2000/svg"><path d="M5.168 27.805a.574.574 0 00-.574.575v9.538a.574.574 0 001.148 0V28.38a.574.574 0 00-.574-.575zm0-2.473a.574.574 0 00-.574.574v.513a.574.574 0 101.148 0v-.513a.574.574 0 00-.574-.574zM24.5 42.591a8.414 8.414 0 10.02-16.828 8.414 8.414 0 00-.02 16.828zm0-15.678a7.265 7.265 0 11.02 14.53 7.265 7.265 0 01-.02-14.53z" fill="#000"/><path d="M20.672 36.08h1.914v1.914c0 .317.353.67.67.67h2.105c.317 0 .479-.353.479-.67V36.08h1.914c.317 0 .478-.353.478-.67v-1.818c0-.317-.161-.479-.478-.479H25.84v-2.01c0-.317-.162-.478-.479-.478h-2.105c-.317 0-.67.162-.67.479v2.01h-1.914c-.317 0-.67.16-.67.478v1.818c0 .317.353.67.67.67zm.478-1.818h2.106c.317 0 .478-.353.478-.67v-1.819h.957v1.819c0 .317.353.67.67.67h1.723v.67h-1.723c-.317 0-.67.161-.67.478v2.106h-.957V35.41c0-.317-.161-.478-.478-.478H21.15v-.67z" fill="#000"/><path d="M43.38 12.92h-8.83V8.204a2.532 2.532 0 00-2.534-2.558h-1.007v-1.29c0-.317-.27-.528-.586-.528H18.578c-.317 0-.586.211-.586.528v1.29h-1.007a2.53 2.53 0 00-2.534 2.558v4.716H5.62a4.576 4.576 0 00-4.566 4.573v6.166a.557.557 0 00.574.554h.383v16.434c0 2.52 2.09 4.525 4.607 4.525h35.766c2.518 0 4.607-2.005 4.607-4.525V24.213h.383a.559.559 0 00.574-.554v-6.166a4.575 4.575 0 00-4.566-4.573zM19.14 4.977h10.72v2.488H19.14V4.977zM15.6 8.204a1.38 1.38 0 011.385-1.41h1.007v1.227a.6.6 0 00.586.592h11.844a.6.6 0 00.586-.592V6.795h1.007a1.382 1.382 0 011.385 1.41v4.715H15.6V8.204zm31.199 14.86H42.3v-1.39a2.967 2.967 0 00-5.934 0v1.39h-17.8a.574.574 0 000 1.149h17.8v1.364a2.967 2.967 0 005.934 0v-1.364h3.54v16.434c0 1.887-1.574 3.376-3.458 3.376H6.617c-1.884 0-3.459-1.49-3.459-3.377V24.214H6.7v1.364a2.967 2.967 0 105.934 0v-1.364h2.105a.574.574 0 000-1.149h-2.105v-1.39a2.967 2.967 0 00-5.934 0v1.39H2.201v-5.571a3.426 3.426 0 013.418-3.425h37.762a3.426 3.426 0 013.418 3.425v5.572zm-5.647-1.39v3.904a1.818 1.818 0 11-3.636 0v-3.904a1.818 1.818 0 113.636 0zM7.848 25.578v-3.904a1.818 1.818 0 113.636 0v3.904a1.818 1.818 0 11-3.636 0z" fill="#000"/></svg><svg fill="none" viewBox="0 0 34 34" id="search" xmlns="http://www.w3.org/2000/svg"><path d="M24.286 21.371H22.73l-.582-.582c1.942-2.138 3.108-5.052 3.108-8.16A12.603 12.603 0 0012.63 0 12.603 12.603 0 000 12.629a12.603 12.603 0 0012.629 12.628c3.108 0 6.022-1.166 8.16-3.108l.582.582v1.555L31.086 34 34 31.086l-9.714-9.715zm-11.657 0a8.706 8.706 0 01-8.743-8.742 8.707 8.707 0 018.743-8.743 8.706 8.706 0 018.742 8.743 8.706 8.706 0 01-8.742 8.742z" fill="#fff"/></svg><svg fill="none" viewBox="0 0 21 21" id="tel" xmlns="http://www.w3.org/2000/svg"><path d="M19.315 13.784c-1.286 0-2.548-.201-3.744-.596-.587-.2-1.307-.017-1.665.35l-2.361 1.783C8.806 13.86 7.12 12.173 5.678 9.455l1.73-2.3c.45-.448.61-1.104.417-1.72a11.941 11.941 0 01-.598-3.75C7.227.755 6.47 0 5.542 0H1.685C.755 0 0 .756 0 1.685 0 12.335 8.665 21 19.315 21c.93 0 1.685-.756 1.685-1.685v-3.846c0-.929-.756-1.685-1.685-1.685z" fill="#fff"/></svg></svg>