<svg version="1.0" xmlns="http://www.w3.org/2000/svg" width="130.667" height="130.667" viewBox="0 0 98 98"><path d="M6.6 4.1L4 6.1v34.7c0 19.1.4 35.3.9 36 1.5 2.4 5.5 3.7 10.6 3.6 3.5-.2 5.3.3 6.3 1.4.9 1.2 1.1 1.2.6.2-.4-.8 1 .1 3.2 1.9 2.1 1.9 3.8 3.8 3.7 4.2-.1.3 2.2.6 5.2.6s5.3-.3 5-.7c-.2-.4 1.5-2.2 3.8-4.1l4.2-3.4 18.2-.1c19-.2 27.7-.9 26.8-2.4-.3-.5-.1-1.1.5-1.5.6-.4 1-12.9 1-35.5V6.1l-2.6-2C88.8 2.1 87.7 2 49 2 10.3 2 9.2 2.1 6.6 4.1zM86.5 82c-.3.6.1.7.9.4 1.8-.7 2.1-1.4.7-1.4-.6 0-1.3.4-1.6 1z"/></svg>